<?xml version="1.0" encoding="UTF-8" standalone="no"?>
<!DOCTYPE svg PUBLIC "-//W3C//DTD SVG 1.0//EN"
"http://www.w3.org/TR/2001/REC-SVG-20010904/DTD/svg10.dtd">
<!-- Created with Inkscape (http://www.inkscape.org/) -->
<svg
   id="svg1"
   sodipodi:version="0.32"
   inkscape:version="0.39"
   xmlns="http://www.w3.org/2000/svg"
   xmlns:sodipodi="http://sodipodi.sourceforge.net/DTD/sodipodi-0.dtd"
   xmlns:inkscape="http://www.inkscape.org/namespaces/inkscape"
   xmlns:xlink="http://www.w3.org/1999/xlink"
   xmlns:rdf="http://www.w3.org/1999/02/22-rdf-syntax-ns#"
   xmlns:cc="http://web.resource.org/cc/"
   xmlns:dc="http://purl.org/dc/elements/1.1/"
   width="210mm"
   height="297mm"
   sodipodi:docbase="/home/esler"
   sodipodi:docname="pimcLogo.svg">
  <defs
     id="defs3">
    <linearGradient
       id="linearGradient2298">
      <stop
         style="stop-color:#000000;stop-opacity:1.0000000;"
         offset="0.0000000"
         id="stop2299" />
      <stop
         style="stop-color:#f63a0d;stop-opacity:1.0000000;"
         offset="0.50000000"
         id="stop2325" />
      <stop
         style="stop-color:#1e11f7;stop-opacity:1.0000000;"
         offset="0.75000000"
         id="stop2326" />
      <stop
         style="stop-color:#ffffff;stop-opacity:1.0000000;"
         offset="1.0000000"
         id="stop2300" />
    </linearGradient>
    <linearGradient
       id="linearGradient1568">
      <stop
         style="stop-color:#000;stop-opacity:1;"
         offset="0"
         id="stop1569" />
      <stop
         style="stop-color:#fff;stop-opacity:1;"
         offset="1"
         id="stop1570" />
    </linearGradient>
    <linearGradient
       id="linearGradient1538">
      <stop
         style="stop-color:#000;stop-opacity:1;"
         offset="0"
         id="stop1539" />
      <stop
         style="stop-color:#fff;stop-opacity:1;"
         offset="1"
         id="stop1540" />
    </linearGradient>
    <linearGradient
       inkscape:collect="always"
       xlink:href="#linearGradient2298"
       id="linearGradient2317"
       x1="1.0210091"
       y1="1.7828015"
       x2="-4.6304312"
       y2="-0.73429227" />
    <linearGradient
       inkscape:collect="always"
       xlink:href="#linearGradient2298"
       id="linearGradient2318"
       x1="3.0897794"
       y1="1.7274814"
       x2="-2.5347075"
       y2="-0.77760756"
       gradientTransform="scale(1.023007,0.977511)" />
    <linearGradient
       inkscape:collect="always"
       xlink:href="#linearGradient2298"
       id="linearGradient2319"
       x1="4.9527330"
       y1="2.3595643"
       x2="-2.4632068"
       y2="-0.94341934"
       gradientTransform="scale(1.345090,0.743445)" />
    <linearGradient
       inkscape:collect="always"
       xlink:href="#linearGradient2298"
       id="linearGradient2320"
       x1="5.9446964"
       y1="2.5792115"
       x2="-2.1856086"
       y2="-1.0419436"
       gradientTransform="scale(1.403294,0.712609)" />
    <linearGradient
       inkscape:collect="always"
       xlink:href="#linearGradient2298"
       id="linearGradient2321"
       x1="2.1123395"
       y1="1.8012294"
       x2="-3.5391006"
       y2="-0.71586442" />
    <linearGradient
       inkscape:collect="always"
       xlink:href="#linearGradient2298"
       id="linearGradient2322"
       x1="7.1110725"
       y1="2.9195504"
       x2="-1.9910820"
       y2="-1.1344564"
       gradientTransform="scale(1.587327,0.629990)" />
    <linearGradient
       inkscape:collect="always"
       xlink:href="#linearGradient2298"
       id="linearGradient2323"
       x1="10.410128"
       y1="3.8957882"
       x2="-1.8318058"
       y2="-1.5566438"
       gradientTransform="scale(1.967059,0.508373)" />
    <linearGradient
       inkscape:collect="always"
       xlink:href="#linearGradient2298"
       id="linearGradient2324"
       x1="6.0880499"
       y1="1.9798659"
       x2="-7.7421504e-08"
       y2="-0.73168957"
       gradientTransform="scale(1.248176,0.801169)" />
  </defs>
  <sodipodi:namedview
     id="base"
     pagecolor="#ffffff"
     bordercolor="#666666"
     borderopacity="1.0"
     inkscape:pageopacity="0.0"
     inkscape:pageshadow="2"
     inkscape:zoom="1.0000000"
     inkscape:cx="252.16043"
     inkscape:cy="569.00366"
     inkscape:window-width="1420"
     inkscape:window-height="1084"
     inkscape:window-x="5"
     inkscape:window-y="22" />
  <metadata
     id="metadata4">
    <rdf:RDF
       id="RDF5">
      <cc:Work
         rdf:about=""
         id="Work6">
        <dc:format
           id="format7">image/svg+xml</dc:format>
        <dc:type
           id="type9"
           rdf:resource="http://purl.org/dc/dcmitype/StillImage" />
      </cc:Work>
    </rdf:RDF>
  </metadata>
  <path
     style="fill:url(#linearGradient2324);fill-opacity:1.0000000;fill-rule:nonzero;stroke:none;stroke-width:1.0000000pt;stroke-linecap:butt;stroke-linejoin:miter;stroke-opacity:1.0000000;"
     id="path1635"
     d="M 47.027759,155.49602 C 44.002533,146.92499 44.250456,136.04757 43.412732,127.12858 C 41.382349,103.26824 39.350782,78.692609 42.336428,54.845627 C 46.361568,32.924696 59.078665,15.349875 81.685807,10.465821 C 107.30940,8.4165809 121.44114,26.456419 128.30310,49.086326 C 133.68000,71.013481 131.90994,93.905068 105.97612,98.716011 C 84.489295,100.11914 64.119373,91.109540 46.786909,79.046871 L 58.187760,71.175929 C 70.795160,80.138330 86.364235,88.233864 102.23913,87.781995 C 119.40741,85.745568 116.04947,63.266247 113.12407,51.334590 C 109.22854,38.665527 101.70609,21.271395 86.047463,21.290080 C 69.130236,23.843338 60.756459,40.760976 57.776649,55.832617 C 54.551947,79.065921 56.602075,103.10590 59.077831,126.32705 C 60.071142,134.80322 66.009560,159.59664 62.927323,151.63851 L 47.027759,155.49602 z " />
  <path
     style="fill:url(#linearGradient2323);fill-opacity:1.0000000;fill-rule:nonzero;stroke:none;stroke-width:1.0000000pt;stroke-linecap:butt;stroke-linejoin:miter;stroke-opacity:1.0000000;"
     id="path1636"
     d="M 157.51359,15.244379 C 163.55497,16.254683 166.11190,18.593660 168.71629,24.000205 C 171.35668,30.036171 171.99334,36.139732 171.08044,42.643641 C 169.70996,50.454331 166.61261,57.878916 164.42294,65.479446 C 161.68381,75.481739 160.02282,85.590647 159.38741,95.941372 C 158.87210,106.59848 160.00879,116.76389 162.61696,127.10280 L 146.64174,129.03426 C 143.89917,117.89671 142.66231,106.92232 143.22530,95.455449 C 143.90776,84.537280 145.62475,73.848107 148.45614,63.280657 C 150.47827,56.051657 153.38834,48.943671 154.68313,41.533958 C 155.34955,36.718294 155.03515,32.217015 153.01151,27.754704 C 150.64469,23.092403 152.89852,26.225703 157.51359,26.979986 L 157.51359,15.244379 z " />
  <path
     style="fill:url(#linearGradient2322);fill-opacity:1.0000000;fill-rule:nonzero;stroke:none;stroke-width:1.0000000pt;stroke-linecap:butt;stroke-linejoin:miter;stroke-opacity:1.0000000;"
     id="path1637"
     d="M 190.32695,31.098596 C 190.55746,28.631501 192.16724,26.366151 193.50448,24.355609 C 197.39298,18.759813 202.82697,15.229221 209.46827,13.718607 C 219.34623,12.442540 228.38318,15.863258 233.95824,24.273631 C 238.72425,32.973572 237.85846,42.813336 236.79640,52.341775 C 235.55192,62.561847 233.59886,72.681073 232.24750,82.888104 C 230.96665,93.128684 230.35444,103.38964 230.12161,113.70457 C 229.94627,121.45497 229.81293,129.20755 229.59971,136.95690 L 213.38595,136.70012 C 213.67904,128.98406 213.77937,121.25600 213.94994,113.53619 C 214.16591,102.93013 214.75089,92.369417 216.08292,81.840975 C 217.44775,71.699624 219.40197,61.639216 220.60622,51.477682 C 221.40045,44.153901 222.56219,35.821993 218.96856,29.036546 C 217.53026,26.787188 215.92763,26.290645 214.11189,24.836536 C 212.71080,23.878053 209.23412,28.336085 208.63290,29.221300 C 208.19673,29.883215 207.09930,30.309330 207.17305,31.098596 L 190.32695,31.098596 z " />
  <path
     style="fill:url(#linearGradient2321);fill-opacity:1.0000000;fill-rule:nonzero;stroke:none;stroke-width:1.0000000pt;stroke-linecap:butt;stroke-linejoin:miter;stroke-opacity:1.0000000;"
     id="path1641"
     d="M 528.41915,14.902943 C 528.40910,14.796891 528.43182,17.021133 528.43789,17.541350 C 528.52390,24.911022 528.60311,32.280826 528.66908,39.650703 C 528.83687,60.024492 529.00330,80.395187 529.50990,100.76423 C 529.80363,111.42329 536.82069,151.82705 512.84180,136.95964 C 502.26726,124.06566 497.09869,106.70036 487.27441,92.996620 C 481.27183,85.194166 458.64860,68.408356 474.13712,60.465072 C 488.03085,57.405097 504.49727,60.673936 518.63812,61.120521 C 535.97150,61.620776 553.31348,61.912181 570.65440,61.916224 C 576.62702,61.888228 582.58433,61.789898 588.54853,61.457911 L 589.74056,72.778206 C 583.36604,73.077478 576.99875,73.169251 570.61776,73.181625 C 553.05636,73.131148 535.49281,72.795105 517.93827,72.317130 C 500.56471,71.811598 481.03159,71.080434 481.99857,70.673287 C 488.46234,66.215886 494.04156,78.419624 501.34879,88.142241 C 510.70735,101.41409 516.98358,116.30550 525.85527,129.79422 C 513.22229,124.24587 514.17201,139.08737 514.39420,124.75849 C 514.51723,116.82458 514.16773,108.87404 513.97572,100.94352 C 513.51289,80.560833 513.31268,60.172528 512.80520,39.790993 C 512.57628,31.478206 512.32191,23.183247 511.58085,14.902943 L 528.41915,14.902943 z " />
  <path
     style="fill:url(#linearGradient2320);fill-opacity:1.0000000;fill-rule:nonzero;stroke:none;stroke-width:1.0000000pt;stroke-linecap:butt;stroke-linejoin:miter;stroke-opacity:1.0000000;"
     id="path1643"
     d="M 231.26359,26.494379 C 233.52257,26.596796 226.63303,27.294743 224.83803,28.670047 C 223.51289,29.685354 227.10339,26.212569 228.32908,25.079192 C 233.55578,20.543417 239.68266,17.761571 246.43934,16.348964 C 256.25875,14.841349 265.32161,17.648936 272.61525,24.362528 C 279.60824,31.645238 282.24863,40.879482 283.68835,50.658365 C 285.04276,62.111896 284.36775,73.562546 283.39305,85.019901 C 282.34882,96.343245 280.47331,107.43161 277.43888,118.39556 C 275.49312,125.04520 273.23647,131.60062 271.07345,138.18183 L 255.11228,135.55198 C 257.35843,129.15897 259.53813,122.71799 261.48531,116.22749 C 264.45430,105.75586 266.29120,95.191897 267.28523,84.356824 C 268.20227,73.515961 268.86753,62.666209 267.55464,51.831415 C 266.42746,44.450988 264.71343,36.834228 259.42361,31.259063 C 257.14505,29.112280 254.26911,27.063800 250.99097,27.464369 C 247.48354,28.050614 244.25966,29.740607 241.61278,32.077738 C 238.16896,35.219065 236.90090,37.974403 231.26359,38.229986 L 231.26359,26.494379 z " />
  <path
     style="fill:url(#linearGradient2319);fill-opacity:1.0000000;fill-rule:nonzero;stroke:none;stroke-width:1.0000000pt;stroke-linecap:butt;stroke-linejoin:miter;stroke-opacity:1.0000000;"
     id="path1644"
     d="M 267.82890,37.335009 C 268.19318,34.261348 270.17207,31.344680 271.91140,28.882347 C 277.51179,21.499727 285.51816,17.458940 294.49902,15.666062 C 308.30055,13.899862 320.75788,18.249187 329.26103,29.462567 C 336.55301,40.774178 337.38907,53.332285 335.43594,66.370391 C 332.91063,80.058230 327.92481,93.147724 324.37618,106.58377 C 321.32103,118.78863 319.04124,131.11626 319.02929,143.73199 L 302.86531,143.67492 C 303.04065,130.37733 305.41960,117.43723 308.63949,104.56463 C 312.11719,91.427668 317.00130,78.598037 319.46104,65.212688 C 321.04047,54.601817 320.77087,44.023318 314.85230,34.739301 C 310.82993,29.372567 305.66665,26.054366 298.81494,26.727476 C 293.94281,27.529328 289.79616,30.008961 286.84394,33.958753 C 286.21793,34.862396 284.44589,39.513166 284.67110,37.335009 L 267.82890,37.335009 z " />
  <path
     style="fill:url(#linearGradient2318);fill-opacity:1.0000000;fill-rule:nonzero;stroke:none;stroke-width:1.0000000pt;stroke-linecap:butt;stroke-linejoin:miter;stroke-opacity:1.0000000;"
     id="path1650"
     d="M 437.50384,44.086940 C 430.70147,39.528374 424.02530,36.466377 416.07695,36.386007 C 396.59987,38.238726 380.47410,53.324087 370.46999,72.514423 C 362.81622,90.406764 361.04020,111.77626 373.16579,127.51197 C 387.77710,142.57010 411.32345,139.68775 429.02751,136.58179 C 439.24500,134.28677 448.66956,130.91237 457.78543,124.92501 L 467.59531,135.28792 C 456.35312,142.40860 444.77169,146.52541 432.26203,149.26860 C 408.19950,153.39732 378.73367,155.31354 359.57092,134.42076 C 345.16217,114.71342 346.49193,89.594051 356.15300,67.411894 C 369.52882,42.006207 391.00784,25.073798 416.48669,23.103100 C 426.29193,23.370121 435.12765,25.861757 443.94070,30.888711 C 445.06590,31.530517 448.32219,33.690400 447.31649,32.813619 L 437.50384,44.086940 z " />
  <path
     style="fill:url(#linearGradient2317);fill-opacity:1.0000000;fill-rule:nonzero;stroke:none;stroke-width:1.0000000pt;stroke-linecap:butt;stroke-linejoin:miter;stroke-opacity:1.0000000;"
     id="path1651"
     d="M 660.39345,17.212090 C 660.38340,17.106040 660.40612,19.330280 660.41219,19.850500 C 660.49820,27.220170 660.57741,34.589970 660.64338,41.959850 C 660.81117,62.333640 660.97760,82.704330 661.48420,103.07338 C 661.77793,113.73244 668.79499,154.13620 644.81610,139.26879 C 634.24156,126.37481 629.07299,109.00951 619.24871,95.305770 C 613.24613,87.503310 590.62290,70.717500 606.11142,62.774220 C 620.00515,59.714240 636.47157,62.983080 650.61242,63.429670 C 667.94580,63.929920 685.28778,64.221330 702.62870,64.225370 C 708.60132,64.197370 714.55863,64.099040 720.52283,63.767060 L 721.71486,75.087350 C 715.34034,75.386620 708.97305,75.478400 702.59206,75.490770 C 685.03066,75.440290 667.46711,75.104250 649.91257,74.626280 C 632.53901,74.120740 613.00589,73.389580 613.97287,72.982430 C 620.43664,68.525030 626.01586,80.728770 633.32309,90.451390 C 642.68165,103.72324 648.95788,118.61465 657.82957,132.10337 C 645.19659,126.55502 646.14631,141.39652 646.36850,127.06764 C 646.49153,119.13373 646.14203,111.18319 645.95002,103.25267 C 645.48719,82.869980 645.28698,62.481670 644.77950,42.100140 C 644.55058,33.787350 644.29621,25.492390 643.55515,17.212090 L 660.39345,17.212090 z " />
</svg>
