/* XPM */
static char *tubes[] = {
/* columns rows colors chars-per-pixel */
"30 30 54 1",
"  c black",
". c #000200",
"X c #000300",
"o c #001100",
"O c #001300",
"+ c #001600",
"@ c #001700",
"# c #002000",
"$ c #002100",
"% c #002400",
"& c #002600",
"* c #002900",
"= c #003900",
"- c #003A00",
"; c #004000",
": c #004A00",
"> c #004C00",
", c #014D00",
"< c #015000",
"1 c #005F00",
"2 c #015F00",
"3 c #016000",
"4 c #016300",
"5 c DarkGreen",
"6 c #006F00",
"7 c #017100",
"8 c #017300",
"9 c #017600",
"0 c #028600",
"q c #028700",
"w c #019300",
"e c #029700",
"r c #019900",
"t c #029A00",
"y c #029D00",
"u c #02A100",
"i c #02AC00",
"p c #02AD00",
"a c #01B400",
"s c #02BE00",
"d c #03C000",
"f c #03C300",
"g c #01C700",
"h c #01CF00",
"j c #03D300",
"k c #03D400",
"l c #02E200",
"z c #02E400",
"x c #03E400",
"c c #03E700",
"v c #02E900",
"b c #03FA00",
"n c gray100",
"m c None",
/* pixels */
"mm    +jmmmmmmmmmmmmmmmmmmmmmm",
"m      abmmmmmmmmmmmmmmmmmmmmm",
"      Ogcbmmmmmmmmmmmmmmmmmmmm",
"      3djcbmmmmmmmmmmmmmmmmmmm",
"     $tpdjcbmmmmmmmmmmmmmmmmmm",
"    +1qtpdjcbmmmmmmmmmmmmmmmmm",
"   $>38qypdjcbmmmmmmmmmmmmmmmm",
"  O&=>38qtpdjcbmmmmmmmmmmmmmmm",
"m  O&=>38qtpdjcbmmmmmmmmmmmmmm",
"mm  +&=>38qtpdjcbmmmmmmmmmmmmm",
"mmm  O&=>38qtpdjcbmmmmmmmmmmmm",
"mmmm  O&=>38qypdjcbmmmmmmmmmmm",
"mmmmm  O&=>38qtpdjcbmmmmmmmmmm",
"mmmmmm  +&=>38qtpdjcbmmmmmmmmm",
"mmmmmmm  O&=>38qtpdjcbmmmmmmmm",
"mmmmmmmm  O*=>38qtpdjcbmmmmmmm",
"mmmmmmmmm  O&=>38qtpdkcbmmmmmm",
"mmmmmmmmmm  O&=>38qypdkcbmmmmm",
"mmmmmmmmmmm  O&=>38qtpdkcbmmmm",
"mmmmmmmmmmmm  O&=>38qtpdjcbmmm",
"mmmmmmmmmmmmm  O&=,28qtpdjcbmm",
"mmmmmmmmmmmmmm  O&=,38qtpdjcbm",
"mmmmmmmmmmmmmmm  O&=>38qtpdjlc",
"mmmmmmmmmmmmmmmm  +&=>38qypdjl",
"mmmmmmmmmmmmmmmmm  O&=>38qtpgx",
"mmmmmmmmmmmmmmmmmm  O&=>38qysj",
"mmmmmmmmmmmmmmmmmmm  O&=>38tpu",
"mmmmmmmmmmmmmmmmmmmm  O&=>8qw3",
"mmmmmmmmmmmmmmmmmmmmm  +*>163m",
"mmmmmmmmmmmmmmmmmmmmmm  &=;=mm"
};
