/* XPM */
static char *lines[] = {
/* columns rows colors chars-per-pixel */
"30 30 3 1",
"  c #008E00",
". c gray100",
"X c None",
/* pixels */
"XXXXXXXXXXXXX      XXXXXXXXXXX",
"XXXXXXXXXXX         XXXXXXXXXX",
"XXXXXXXXXX      X    XXXXXXXXX",
"XXXXXXXX      XXXX    XXXXXXXX",
"XXXXXX      XXXXXXX     XXXXXX",
"XXXXX      XXXXXXXXX     XXXXX",
"XXX      XXXXXXXXXXXX     XXXX",
"X      XXXXXXXXXXXXXXX     XXX",
"     XXXXXXXXXXXXXXXXXXX    XX",
"    XXXXXXXXXXXXXXXXXXXXX    X",
"  XXXXXXXXXXXXXXXXXXXXXXXX    ",
"XXXXXXXXXXXXXXXXXXXXXXX       ",
"XXXXXXXXXXXXXXXXXX            ",
"XXXXXXXXXXXXX               XX",
"XXXXXXXX               XXXXXXX",
"XXXXXXX           XXXXXXXXXXXX",
"XXXXXXX      XXXXXXXXXXXXXXXXX",
"XXXXXXXX  XXXXXXXXXXXXXXXXXXXX",
"XXXXXXXX   XXXXXXXXXXXXXXXXXXX",
"XXXXXXXX   XXXXXXXXXXXXXXXXXXX",
"XXXXXXXX   XXXXXXXXXXXXXXXX  X",
"XXXXXXXX   XXXXXXXXXXXXXX     ",
"XXXXXXXX   XXXXXXXXXXXX       ",
"XXXXXXXXX  XXXXXXXXXX       XX",
"XXXXXXXXX   XXXXXXX       XXXX",
"XXXXXXXXX   XXXXX       XXXXXX",
"XXXXXXXXX   XX        XXXXXXXX",
"XXXXXXXXX          XXXXXXXXXXX",
"XXXXXXXXX        XXXXXXXXXXXXX",
"XXXXXXXXX      XXXXXXXXXXXXXXX"
};
