<?xml version="1.0" encoding="UTF-8" standalone="no"?>
<!DOCTYPE svg PUBLIC "-//W3C//DTD SVG 1.0//EN"
"http://www.w3.org/TR/2001/REC-SVG-20010904/DTD/svg10.dtd">
<!-- Created with Inkscape (http://www.inkscape.org/) -->
<svg
   id="svg1"
   sodipodi:version="0.32"
   inkscape:version="0.39"
   xmlns="http://www.w3.org/2000/svg"
   xmlns:sodipodi="http://sodipodi.sourceforge.net/DTD/sodipodi-0.dtd"
   xmlns:inkscape="http://www.inkscape.org/namespaces/inkscape"
   xmlns:xlink="http://www.w3.org/1999/xlink"
   xmlns:rdf="http://www.w3.org/1999/02/22-rdf-syntax-ns#"
   xmlns:cc="http://web.resource.org/cc/"
   xmlns:dc="http://purl.org/dc/elements/1.1/"
   width="210mm"
   height="297mm"
   sodipodi:docbase="/home/esler/svnwork/PIMC++/src/Visual"
   sodipodi:docname="smooth.svg">
  <defs
     id="defs3" />
  <sodipodi:namedview
     id="base"
     pagecolor="#ffffff"
     bordercolor="#666666"
     borderopacity="1.0"
     inkscape:pageopacity="0.0"
     inkscape:pageshadow="2"
     inkscape:zoom="0.61884588"
     inkscape:cx="297.63780"
     inkscape:cy="420.94487"
     inkscape:window-width="789"
     inkscape:window-height="686"
     inkscape:window-x="1638"
     inkscape:window-y="271" />
  <metadata
     id="metadata4">
    <rdf:RDF
       id="RDF5">
      <cc:Work
         rdf:about=""
         id="Work6">
        <dc:format
           id="format7">image/svg+xml</dc:format>
        <dc:type
           id="type9"
           rdf:resource="http://purl.org/dc/dcmitype/StillImage" />
      </cc:Work>
    </rdf:RDF>
  </metadata>
  <path
     style="fill:#ff0000;fill-opacity:1.0000000;fill-rule:evenodd;stroke:none;stroke-width:14.121211;stroke-linecap:round;stroke-linejoin:round;stroke-miterlimit:4.0000000;stroke-opacity:1.0000000;"
     d="M 243.93750,53.625000 C 228.81242,52.712519 212.34939,58.734323 195.84375,65.906250 C 173.83623,75.468819 151.08162,87.938531 131.93750,93.750000 C 129.41483,94.387315 127.44704,96.360289 126.81636,98.884624 C 126.18568,101.40896 126.99431,104.07560 128.92081,105.82449 C 130.84731,107.57339 133.57949,108.12114 136.03125,107.25000 C 157.47057,100.74179 180.35637,88.048618 201.46875,78.875000 C 222.58113,69.701382 241.26480,64.895418 252.90625,70.000000 C 258.36438,72.393298 266.45016,79.804747 274.15625,89.937500 C 281.86234,100.07025 289.46528,112.77525 295.75000,125.43750 C 302.03472,138.09975 307.00757,150.79530 309.59375,160.62500 C 310.88684,165.53985 311.56834,169.75217 311.62500,172.59375 C 311.64908,173.80148 311.46438,174.51074 311.34375,175.06250 C 310.98002,175.08086 310.71919,175.13936 309.78125,175.00000 C 307.07979,174.59861 302.79550,173.31604 297.75000,171.34375 C 287.65899,167.39917 274.37077,160.84615 260.40625,154.18750 C 246.44173,147.52885 231.76643,140.75078 218.25000,136.25000 C 204.73357,131.74922 192.36035,128.91587 181.56250,132.87500 C 171.76910,136.46584 163.07788,144.46675 154.93750,154.40625 C 146.79712,164.34575 139.37628,176.39542 133.46875,188.68750 C 127.56122,200.97958 123.14461,213.42800 121.31250,224.53125 C 119.48039,235.63450 119.58954,246.23850 126.84375,253.37500 C 133.80893,260.22716 143.96304,261.53045 156.03125,261.93750 C 168.09946,262.34455 182.44903,261.19609 197.81250,259.46875 C 228.53944,256.01406 263.33643,250.21389 288.62500,249.21875 C 291.23192,249.24512 293.64128,247.83294 294.89203,245.54551 C 296.14278,243.25807 296.03140,240.46758 294.60233,238.28710 C 293.17326,236.10663 290.65903,234.89096 288.06250,235.12500 C 261.17234,236.18317 226.39825,242.01662 196.25000,245.40625 C 181.17588,247.10106 167.25999,248.17542 156.50000,247.81250 C 145.74001,247.44958 138.48128,245.01569 136.75000,243.31250 C 135.30775,241.89365 133.74169,235.98462 135.25000,226.84375 C 136.75831,217.70288 140.72625,206.14473 146.18750,194.78125 C 151.64875,183.41777 158.59549,172.19396 165.84375,163.34375 C 173.09201,154.49354 180.79968,148.18070 186.40625,146.12500 C 191.00837,144.43759 201.41213,145.50626 213.78125,149.62500 C 226.15037,153.74374 240.46647,160.33535 254.31250,166.93750 C 268.15853,173.53965 281.50979,180.16727 292.59375,184.50000 C 298.13573,186.66636 303.06548,188.28200 307.68750,188.96875 C 312.30952,189.65550 317.70423,189.69032 321.75000,185.40625 C 325.40946,181.53124 325.81072,176.92478 325.71875,172.31250 C 325.62678,167.70022 324.72552,162.63948 323.25000,157.03125 C 320.29897,145.81478 315.03035,132.50228 308.40625,119.15625 C 301.78215,105.81022 293.80492,92.490778 285.37500,81.406250 C 276.94508,70.321722 268.32316,61.342388 258.56250,57.062500 C 253.86347,55.002053 248.97919,53.929160 243.93750,53.625000 z "
     id="path908" />
</svg>
